<?xml version="1.0" encoding="UTF-8" standalone="no"?>
<svg
   xmlns:dc="http://purl.org/dc/elements/1.1/"
   xmlns:cc="http://creativecommons.org/ns#"
   xmlns:rdf="http://www.w3.org/1999/02/22-rdf-syntax-ns#"
   xmlns:svg="http://www.w3.org/2000/svg"
   xmlns="http://www.w3.org/2000/svg"
   xmlns:sodipodi="http://sodipodi.sourceforge.net/DTD/sodipodi-0.dtd"
   xmlns:inkscape="http://www.inkscape.org/namespaces/inkscape"
   width="4in"
   height="2in"
   viewBox="0 0 101.6 50.800001"
   version="1.1"
   id="svg8"
   inkscape:version="1.0.2 (e86c870879, 2021-01-15)"
   sodipodi:docname="experimenting.svg"
   inkscape:export-filename="/home/kent/Documents/cad/protospace-toolwiki-qr-codes/labels/26.png"
   inkscape:export-xdpi="300"
   inkscape:export-ydpi="300">
  <defs
     id="defs2">
    <inkscape:perspective
       sodipodi:type="inkscape:persp3d"
       inkscape:vp_x="0 : -97.700007 : 1"
       inkscape:vp_y="0 : 999.99999 : 0"
       inkscape:vp_z="368.23297 : -30.931144 : 1"
       inkscape:persp3d-origin="105.00001 : -147.2 : 1"
       id="perspective1012" />
    <marker
       id="DistanceX"
       orient="auto"
       refX="0"
       refY="0"
       style="overflow:visible">
      <path
         d="M 3,-3 -3,3 M 0,-5 V 5"
         style="stroke:#000000;stroke-width:0.5"
         id="path3016" />
    </marker>
    <pattern
       id="Hatch"
       patternUnits="userSpaceOnUse"
       width="8"
       height="8"
       x="0"
       y="0">
      <path
         d="M8 4 l-4,4"
         stroke="#000000"
         stroke-width="0.25"
         linecap="square"
         id="path3019" />
      <path
         d="M6 2 l-4,4"
         stroke="#000000"
         stroke-width="0.25"
         linecap="square"
         id="path3021" />
      <path
         d="M4 0 l-4,4"
         stroke="#000000"
         stroke-width="0.25"
         linecap="square"
         id="path3023" />
    </pattern>
    <symbol
       id="*Model_Space" />
    <symbol
       id="*Paper_Space" />
    <symbol
       id="*Paper_Space0" />
  </defs>
  <sodipodi:namedview
     id="base"
     pagecolor="#ffffff"
     bordercolor="#666666"
     borderopacity="1.0"
     inkscape:pageopacity="0.0"
     inkscape:pageshadow="2"
     inkscape:zoom="1.719334"
     inkscape:cx="151.52794"
     inkscape:cy="133.62199"
     inkscape:document-units="in"
     inkscape:current-layer="layer1"
     inkscape:document-rotation="0"
     showgrid="false"
     inkscape:window-width="1904"
     inkscape:window-height="1000"
     inkscape:window-x="8"
     inkscape:window-y="35"
     inkscape:window-maximized="0"
     units="in"
     inkscape:pagecheckerboard="true"
     showguides="true"
     fit-margin-top="0.0625"
     fit-margin-left="0.0625"
     fit-margin-right="0.0625"
     fit-margin-bottom="0.0625"
     lock-margins="false"
     inkscape:guide-bbox="true"
     inkscape:snap-text-baseline="true"
     inkscape:snap-center="true"
     inkscape:snap-page="true"
     inkscape:snap-global="true"
     inkscape:snap-nodes="true"
     inkscape:snap-others="true"
     inkscape:snap-to-guides="true"
     inkscape:snap-grids="false"
     inkscape:snap-midpoints="true"
     inkscape:snap-intersection-paths="true"
     inkscape:object-paths="true"
     inkscape:snap-bbox="true"
     inkscape:bbox-paths="true"
     inkscape:bbox-nodes="true"
     inkscape:snap-bbox-edge-midpoints="true"
     inkscape:snap-bbox-midpoints="true"
     inkscape:snap-smooth-nodes="false">
    <inkscape:grid
       type="xygrid"
       id="grid5224"
       originx="1.4344618"
       originy="-0.29435743" />
    <sodipodi:guide
       position="1.5875,49.137131"
       orientation="-1,0"
       id="guide985"
       inkscape:label=""
       inkscape:locked="false"
       inkscape:color="rgb(0,0,255)" />
    <sodipodi:guide
       position="100.0125,28.8544"
       orientation="-1,0"
       id="guide991"
       inkscape:label=""
       inkscape:locked="false"
       inkscape:color="rgb(0,0,255)" />
    <sodipodi:guide
       position="30.1498,49.1998"
       orientation="0,1"
       id="guide995"
       inkscape:label=""
       inkscape:locked="false"
       inkscape:color="rgb(0,0,255)" />
    <sodipodi:guide
       position="14.976593,1.5748"
       orientation="0,1"
       id="guide997"
       inkscape:label=""
       inkscape:locked="false"
       inkscape:color="rgb(0,0,255)" />
    <sodipodi:guide
       position="38.127363,-6.4123769"
       orientation="-1,0"
       id="guide1027"
       inkscape:label=""
       inkscape:locked="false"
       inkscape:color="rgb(0,0,255)" />
    <sodipodi:guide
       position="44.937772,42.696769"
       orientation="0,-1"
       id="guide1059" />
    <sodipodi:guide
       position="21.71376,46.308067"
       orientation="0,-1"
       id="guide1264" />
    <sodipodi:guide
       position="7.5844516,39.697809"
       orientation="0,-1"
       id="guide1268" />
    <sodipodi:guide
       position="12.976396,38.1127"
       orientation="0,1"
       id="guide1667"
       inkscape:label=""
       inkscape:locked="false"
       inkscape:color="rgb(0,0,255)" />
    <sodipodi:guide
       position="41.2877,20.570493"
       orientation="-1,0"
       id="guide1669"
       inkscape:label=""
       inkscape:locked="false"
       inkscape:color="rgb(0,0,255)" />
  </sodipodi:namedview>
  <metadata
     id="metadata5">
    <rdf:RDF>
      <cc:Work
         rdf:about="">
        <dc:format>image/svg+xml</dc:format>
        <dc:type
           rdf:resource="http://purl.org/dc/dcmitype/StillImage" />
        <dc:title />
      </cc:Work>
    </rdf:RDF>
  </metadata>
  <g
     inkscape:label="Layer 1"
     inkscape:groupmode="layer"
     id="layer1"
     style="display:inline"
     transform="translate(1.434462,-0.29435742)">
    <rect
       style="fill:#ffff00;fill-rule:evenodd;stroke:#000000;stroke-width:0.499999;stroke-dasharray:1.5, 1.5"
       id="rect5623"
       width="101.60001"
       height="50.800003"
       x="-1.434462"
       y="0.29435742" />
    <path
       style="fill:#000000;stroke-width:0.0173182"
       d="m 1.5558109,10.864781 v -0.536667 l -0.6970569,-0.0045 -0.69705689,-0.0045 V 9.86013 9.4011982 l 3.12160259,-0.00438 3.1216026,-0.00438 V 8.8816056 8.3707664 H 3.2789701 0.15303802 V 6.8925769 c 0,-0.8649401 0.007447,-1.570838 0.0179497,-1.7015113 C 0.27366311,3.9136237 1.0401436,2.7895551 2.182955,2.2404497 3.1814844,1.7606699 4.2995369,1.7575669 5.2917746,2.2318217 c 1.1555243,0.5523 1.9194107,1.6600024 2.0300425,2.9437403 0.00985,0.1143 0.01799,0.4396442 0.018088,0.722987 l 1.787e-4,0.5151689 -3.1216026,0.00438 -3.1216026,0.00438 -0.00458,0.523875 -0.00458,0.523875 h 3.108969 3.1089692 l -0.00443,1.4157613 -0.00443,1.4157618 -0.7054695,0.0045 -0.7054696,0.0045 -0.00458,0.540999 -0.00458,0.540999 -0.4459433,0.0046 -0.4459432,0.0046 V 10.864877 10.327721 H 3.7032656 2.4217201 v 0.536863 0.536864 H 1.9887655 1.5558109 Z M 6.3009932,5.3244874 c 0,-1.0729858 -0.7419706,-2.0755132 -1.7883248,-2.4163286 C 4.2224182,2.8136194 4.0316785,2.7855401 3.6859475,2.7864551 3.3508332,2.787342 3.1901074,2.8110682 2.9088108,2.9011756 2.0192101,3.18614 1.3365372,3.9404475 1.1497294,4.8448417 1.1009386,5.0810529 1.0711203,5.4730761 1.0997654,5.501721 c 0.00635,0.00635 1.1792239,0.011546 2.6063867,0.011546 H 6.3009932 Z M 20.467267,8.4804579 c -0.73382,-0.1155748 -1.316019,-0.5601663 -1.56104,-1.1920778 -0.0932,-0.2403563 -0.123319,-0.430553 -0.113824,-0.7187045 0.0098,-0.2961167 0.04389,-0.444601 0.157133,-0.6836662 0.185256,-0.3910823 0.465253,-0.679806 0.851303,-0.8778397 0.316033,-0.1621169 0.598409,-0.2283366 0.969496,-0.2273559 0.91918,0.00243 1.696166,0.5607908 1.933053,1.3891372 0.134662,0.4708916 0.04408,1.0222107 -0.238352,1.4507911 -0.09438,0.143219 -0.351035,0.4036809 -0.496783,0.5041562 -0.245544,0.1692726 -0.538529,0.2890669 -0.832251,0.3402877 -0.140663,0.02453 -0.550524,0.03389 -0.668735,0.015272 z M 21.064745,7.7907511 C 21.476245,7.6820189 21.802257,7.3534093 21.91536,6.9333574 21.95656,6.780367 21.95639,6.4791372 21.915014,6.327221 21.677793,5.4560327 20.579903,5.1562418 19.947717,5.7900287 19.71397,6.0243678 19.617892,6.2437639 19.605071,6.5724706 c -0.0097,0.2485628 0.02183,0.4084418 0.11823,0.5996505 0.182036,0.3610605 0.490705,0.5863858 0.891166,0.650546 0.09031,0.014469 0.342333,-0.00339 0.450272,-0.031916 z M 28.22759,8.4648705 C 27.814143,8.3894292 27.45084,8.1998935 27.161538,7.9087094 26.929799,7.675462 26.778509,7.4138856 26.687562,7.089221 c -0.04216,-0.1505213 -0.046,-0.1903147 -0.04501,-0.4675909 9.87e-4,-0.2770701 0.0051,-0.3164387 0.04767,-0.4589318 0.30582,-1.0229141 1.372523,-1.5930144 2.463053,-1.3163793 0.57097,0.1448387 1.063457,0.5455492 1.300168,1.0578757 0.107107,0.2318192 0.149374,0.4298767 0.151257,0.7087763 0.0022,0.3304863 -0.04447,0.5340868 -0.18868,0.8226136 -0.265968,0.5321285 -0.80656,0.9200322 -1.434876,1.0296014 -0.187396,0.032679 -0.573609,0.032518 -0.753549,-3.152e-4 z m 0.735594,-0.6904783 c 0.188802,-0.059878 0.339819,-0.1523001 0.483296,-0.2957776 0.142387,-0.1423868 0.23448,-0.2921788 0.297963,-0.4846436 0.03957,-0.1199585 0.04584,-0.168749 0.04679,-0.3636818 0.001,-0.2086271 -0.0028,-0.2360804 -0.05195,-0.3743801 -0.13567,-0.3817578 -0.448825,-0.6701814 -0.838061,-0.771876 -0.152141,-0.039749 -0.439325,-0.038942 -0.588819,0.00166 -0.371391,0.1008562 -0.682734,0.3940796 -0.809122,0.7620346 -0.04366,0.1271075 -0.04813,0.1626151 -0.04813,0.3825664 0,0.266116 0.02641,0.3825541 0.131567,0.5801591 0.154249,0.2898445 0.461761,0.5271675 0.76032,0.5867777 0.05239,0.01046 0.110836,0.022617 0.129886,0.027016 0.08482,0.019587 0.354481,-0.00806 0.486257,-0.04985 z m 3.551791,0.6731355 C 32.146766,8.3902499 31.779986,8.2458715 31.472973,8.037358 31.33588,7.9442489 31.135268,7.7791192 31.135268,7.7593832 c 0,-0.00861 0.06018,-0.083041 0.133743,-0.1653983 0.07356,-0.082358 0.135311,-0.1523933 0.137225,-0.1556349 0.0019,-0.00324 0.05388,0.036858 0.115469,0.08911 0.415458,0.3524446 0.837978,0.5206758 1.3627,0.542574 0.721105,0.030094 1.177636,-0.2326462 1.177636,-0.6777446 0,-0.2562575 -0.139648,-0.430272 -0.423739,-0.5280132 C 33.476164,6.8084924 33.284264,6.7799108 32.823791,6.7429618 32.585666,6.7238545 32.340181,6.7000188 32.278268,6.6899936 31.918871,6.6317987 31.684106,6.5329361 31.523412,6.3721155 31.378057,6.226645 31.339446,6.1244012 31.329689,5.8591222 c -0.0067,-0.1810359 -0.0031,-0.2123716 0.03836,-0.3358236 0.02514,-0.074886 0.07349,-0.1780207 0.107456,-0.2291879 0.374551,-0.5642825 1.538627,-0.6706466 2.432848,-0.2222941 0.166016,0.083238 0.361504,0.2083231 0.361504,0.2313115 0,0.00754 -0.0604,0.083251 -0.134216,0.1682494 l -0.134216,0.1545422 -0.14504,-0.098796 c -0.303003,-0.2063974 -0.634338,-0.3057262 -1.06723,-0.3199392 -0.383503,-0.012591 -0.610309,0.03888 -0.794926,0.1804019 -0.225436,0.1728117 -0.268352,0.5004683 -0.08824,0.6736776 0.140203,0.1348307 0.33576,0.1825577 0.912954,0.2228135 0.692022,0.048265 0.93395,0.093952 1.20838,0.2281989 0.350753,0.1715838 0.502308,0.4214237 0.502308,0.8280582 0,0.3137017 -0.08374,0.5270314 -0.286462,0.7297506 -0.195808,0.1958091 -0.510798,0.3338201 -0.882515,0.3866687 -0.171412,0.02437 -0.66427,0.018994 -0.84568,-0.00923 z m 11.941066,0.00206 C 43.613645,8.2902668 43.018038,7.6556443 42.928252,6.8217168 42.881229,6.3849742 43.016515,5.8826538 43.271318,5.5479029 43.379034,5.4063886 43.599369,5.1959763 43.73093,5.10899 c 0.728457,-0.4816475 1.822225,-0.4044815 2.576328,0.1817613 0.06553,0.050946 0.119334,0.096688 0.119559,0.101649 2.26e-4,0.00496 -0.06904,0.078148 -0.153925,0.1626379 L 46.118559,5.708656 45.976612,5.6016961 c -0.181498,-0.1367624 -0.44684,-0.266243 -0.666817,-0.3253897 -0.15335,-0.041232 -0.204904,-0.046566 -0.458525,-0.04744 -0.325929,-0.00112 -0.418548,0.017197 -0.650778,0.1287269 -0.28685,0.1377613 -0.507894,0.3632211 -0.646874,0.6597972 -0.102911,0.2196091 -0.129232,0.3461972 -0.129232,0.6215577 0,0.2894483 0.02767,0.4117098 0.148935,0.6580909 0.07862,0.1597302 0.109635,0.2019767 0.255099,0.3474403 0.145278,0.1452782 0.188063,0.1767161 0.348656,0.2561896 0.253014,0.1252094 0.447769,0.1652589 0.743466,0.1528868 0.448385,-0.018761 0.8658,-0.1910151 1.197504,-0.4941726 l 0.09539,-0.087184 0.153786,0.1545014 0.153785,0.1545015 -0.05122,0.053941 c -0.07379,0.077711 -0.299819,0.2454198 -0.445148,0.3302971 -0.167398,0.097766 -0.401508,0.1916901 -0.620826,0.2490732 -0.158182,0.041388 -0.219352,0.047877 -0.500589,0.053101 -0.223238,0.00415 -0.358834,-0.00132 -0.447183,-0.018028 z M 10.90763,6.6381491 V 4.8882135 l 1.155989,0.00549 1.155988,0.00549 0.155864,0.048333 c 0.214606,0.066548 0.359308,0.1515633 0.503643,0.2958979 0.145982,0.1459827 0.237202,0.3020396 0.284384,0.4865177 0.06431,0.251455 0.04006,0.482993 -0.07616,0.7271702 -0.143707,0.3019175 -0.405182,0.5039563 -0.777224,0.6005514 -0.132027,0.034279 -0.196664,0.037528 -0.882809,0.044377 l -0.740353,0.00739 v 0.639324 0.6393299 H 11.297289 10.90763 Z m 2.25534,-0.2470856 c 0.336799,-0.1653883 0.339587,-0.6180194 0.0049,-0.7972766 -0.06736,-0.036078 -0.09125,-0.037381 -0.775216,-0.042285 l -0.705716,-0.00506 V 5.9983605 6.450279 l 0.688398,-0.00525 0.688398,-0.00525 z m 1.74516,0.2478848 V 4.889812 h 1.089522 c 1.17072,0 1.217362,0.00292 1.460435,0.091565 0.340088,0.1240187 0.60915,0.4131019 0.696451,0.7482736 0.03419,0.1312675 0.03432,0.3879701 2.6e-4,0.5187329 -0.06632,0.2546257 -0.296614,0.5359937 -0.545031,0.6659142 -0.06191,0.03238 -0.115256,0.061046 -0.118543,0.063702 -0.0051,0.0041 0.717468,1.2577519 0.790241,1.3711192 l 0.02501,0.038966 -0.447935,-5.369e-4 -0.447935,-5.368e-4 -0.348367,-0.635906 -0.348367,-0.6359066 -0.521872,-0.00458 -0.521872,-0.00458 V 7.747058 8.3880846 h -0.381 -0.381 z m 2.181509,-0.2179086 c 0.116574,-0.034619 0.266932,-0.1457579 0.291249,-0.2776688 0.03809,-0.2066201 -0.04426,-0.4917053 -0.271134,-0.5690076 -0.06448,-0.02197 -0.193225,-0.02646 -0.75864,-0.02646 H 15.67013 V 5.998176 6.4484487 h 0.663607 c 0.554853,0 0.678733,-0.00449 0.755902,-0.027409 z m 7.218036,0.5512836 -0.0044,-1.4157613 -0.636443,-0.00454 -0.636444,-0.00454 V 5.2186441 4.889812 h 1.662546 1.662546 v 0.3288321 0.3288321 l -0.636444,0.00454 -0.636443,0.00454 -0.0044,1.4157613 -0.0044,1.4157613 H 24.692904 24.312107 Z M 35.464814,6.6381331 V 4.8881815 l 1.130012,0.00613 c 1.258091,0.00682 1.204107,0.00203 1.467716,0.1304312 0.09507,0.046311 0.164732,0.09821 0.259895,0.1936358 0.202405,0.2029606 0.294287,0.4220965 0.294287,0.7018671 0,0.2776993 -0.09337,0.5005181 -0.294501,0.7028197 -0.14823,0.1490897 -0.298888,0.2335923 -0.528113,0.2962145 -0.131868,0.036025 -0.179661,0.038174 -0.991466,0.044574 l -0.852921,0.00672 V 7.6793302 8.3880846 H 35.707269 35.464814 Z M 37.50836,6.5347914 c 0.282908,-0.029174 0.483612,-0.1572328 0.592337,-0.3779406 0.05732,-0.1163487 0.05672,-0.3566861 -0.0012,-0.4741492 -0.0565,-0.1146466 -0.157071,-0.2231542 -0.25747,-0.2777984 -0.17084,-0.092982 -0.236682,-0.09892 -1.10003,-0.099199 l -0.792314,-2.559e-4 v 0.6234545 0.6234545 l 0.697057,-2.996e-4 c 0.383382,-1.732e-4 0.771092,-0.00793 0.86158,-0.017266 z m 1.335592,1.7017591 c 0.03815,-0.083344 0.402234,-0.8685068 0.809088,-1.7448067 l 0.739734,-1.5932727 h 0.229527 0.229525 l 0.804235,1.7318181 c 0.442331,0.9525 0.804475,1.737663 0.804768,1.7448068 2.94e-4,0.00714 -0.114418,0.012791 -0.254912,0.01255 L 41.950474,8.3872083 41.716678,7.8682603 41.482883,7.3493124 40.606692,7.3491565 39.730501,7.3490007 39.498328,7.86842 39.266155,8.3878394 39.020378,8.3879606 38.7746,8.3880818 38.843952,8.2365477 Z M 41.29566,6.9290278 C 41.165595,6.6192201 40.62072,5.4526529 40.606081,5.4526529 c -0.01677,0 -0.686943,1.4430799 -0.689654,1.485034 -4.67e-4,0.00714 0.311721,0.012989 0.693741,0.012989 0.548965,0 0.692675,-0.00454 0.685492,-0.021648 z M 47.414361,6.6389483 V 4.889812 h 1.411981 1.411982 l -0.0049,0.2034886 -0.0049,0.2034887 -1.173307,0.00445 -1.173307,0.00445 v 0.5105709 0.5105712 l 0.705716,0.00452 0.705716,0.00452 0.0049,0.2121477 0.0049,0.2121478 h -0.710579 -0.710579 v 0.6061363 0.6061363 h 1.23825 1.23825 v 0.2078182 0.2078182 h -1.472046 -1.472045 z"
       id="path82"
       sodipodi:nodetypes="ccccccccccccscssssccccccccccccccccccccccccssssssscssscsssssssssccscsssssssscsscssssssscsscsssssssssssccsssssscccssscsssssssssssssssssscssssssssssscccssssssccccssscsscccccccssccccccccscssscsccccccccccccsasscccsscccccccccccccccccccsssssssccccccsscssccccsssscccsssccccccccccscssscccccccccccccccccccccccccc" />
    <text
       xml:space="preserve"
       style="font-size:5.26477px;line-height:1.25;font-family:'Liberation Sans';-inkscape-font-specification:'Liberation Sans';letter-spacing:0px;word-spacing:0px;stroke-width:0.372788"
       x="53.803993"
       y="8.4499979"
       id="text3901"><tspan
         sodipodi:role="line"
         id="tspan3899"
         x="53.803993"
         y="8.4499979"
         style="font-weight:bold;font-size:5.26477px;stroke-width:0.372788"><tspan
           style="font-weight:normal;stroke-width:0.372788"
           id="tspan1266">WIKI  ID:</tspan></tspan></text>
    <flowRoot
       xml:space="preserve"
       id="flowRoot4670"><flowRegion
         id="flowRegion4648"><text
   xml:space="preserve"
   style="font-size:7.54232px;line-height:1.25;font-family:'Liberation Sans';-inkscape-font-specification:'Liberation Sans';stroke-width:0.486301"
   x="46.390026"
   y="46.032681"
   id="text4646"><tspan
     sodipodi:role="line"
     id="tspan4644"
     x="46.390026"
     y="46.032681"
     style="font-weight:bold;font-size:7.54232px;stroke-width:0.486301">TOOL </tspan></text>
  </flowRegion><flowPara
         id="flowPara4650">Lorem ipsum dolor sit amet, consectetuer adipiscing elit. Nulla facilisi. Pellentesque habitant morbi tristique senectus et netus et malesuada fames ac turpis egestas. Mauris urna sem, suscipit vitae, dignissim id, ultrices sed, nunc. Suspendisse potenti. In consectetuer, lorem eu lobortis egestas, velit odio imperdiet eros, sit amet sagittis nunc mi ac neque. Morbi urna. Pellentesque et arcu. Ut eu metus id lectus vestibulum ultrices. Quisque dictum quam vel neque. Nulla sagittis condimentum ligula. Suspendisse molestie sem. Quisque facilisis, urna sit amet pulvinar mollis, purus arcu adipiscing velit, non condimentum diam purus eu massa. Sed at turpis vitae velit euismod aliquet. Integer accumsan. Aenean luctus vulputate turpis. Aenean justo ipsum, luctus ut, volutpat laoreet, vehicula in, libero. Donec rutrum venenatis dui. Aliquam imperdiet lobortis metus. Aenean ultrices turpis. Proin lectus orci, venenatis pharetra, egestas id, tincidunt vel, eros. </flowPara><flowPara
         id="flowPara4652" /><flowPara
         id="flowPara4654">Nam nisl quam, posuere non, volutpat sed, semper vitae, magna. Sed at turpis vitae velit euismod aliquet. Aliquam sed erat. Vestibulum ante ipsum primis in faucibus orci luctus et ultrices posuere cubilia Curae; Suspendisse potenti. Phasellus nisi metus, tempus sit amet, ultrices ac, porta nec, felis. Quisque malesuada nulla sed pede volutpat pulvinar. Suspendisse venenatis. In hac habitasse platea dictumst. Phasellus magna sem, vulputate eget, ornare sed, dignissim sit amet, pede. Aenean ultrices turpis. Aliquam justo lectus, iaculis a, auctor sed, congue in, nisl. In hac habitasse platea dictumst. Suspendisse potenti. Praesent a eros. Vestibulum non arcu a ante feugiat vestibulum. </flowPara><flowPara
         id="flowPara4656" /><flowPara
         id="flowPara4658">Quisque pretium rutrum ligula. Aenean luctus vulputate turpis. Integer tempus malesuada pede. Proin lectus orci, venenatis pharetra, egestas id, tincidunt vel, eros. Nullam libero nunc, tristique eget, laoreet eu, sagittis id, ante. Sed dolor. Morbi volutpat. Mauris sed nulla quis nisi interdum tempor. Donec at diam a tellus dignissim vestibulum. Nunc metus. Nulla blandit justo a metus. Vestibulum ante ipsum primis in faucibus orci luctus et ultrices posuere cubilia Curae; Donec gravida, ante vel ornare lacinia, orci enim porta est, eget sollicitudin lectus lectus eget lacus. Cras facilisis felis sit amet lorem. Pellentesque condimentum felis a sem. Integer accumsan. Phasellus auctor enim eget sem. Vivamus quis mi. Vivamus posuere, ante eu tempor dictum, felis nibh facilisis sem, eu auctor metus nulla non lorem. Aliquam justo lectus, iaculis a, auctor sed, congue in, nisl. </flowPara><flowPara
         id="flowPara4660" /><flowPara
         id="flowPara4662">Nam sed nisl nec elit suscipit ullamcorper. Aliquam metus. Suspendisse fermentum. Donec sit amet enim. Mauris tincidunt aliquam ante. Phasellus at purus sed purus cursus iaculis. Donec ut purus. Fusce nonummy commodo dui. Nullam sapien mauris, venenatis at, fermentum at, tempus eu, urna. Donec ut urna. Sed dolor. Vivamus quis mi. Praesent scelerisque. Nam molestie nisl at metus. Suspendisse fermentum. Donec nonummy lacinia leo. Aliquam justo lectus, iaculis a, auctor sed, congue in, nisl. Aenean scelerisque metus eget sem. Donec ut purus. Aliquam justo lectus, iaculis a, auctor sed, congue in, nisl. Nam consectetuer mollis dolor. Mauris urna sem, suscipit vitae, dignissim id, ultrices sed, nunc. Donec nonummy lacinia leo. Cras ac enim vel dui vestibulum suscipit. Aliquam velit dui, commodo quis, porttitor eget, convallis et, nisi. Suspendisse potenti. </flowPara><flowPara
         id="flowPara4664" /><flowPara
         id="flowPara4666">Pellentesque ac turpis. Morbi turpis arcu, egestas congue, condimentum quis, tristique cursus, leo. Vestibulum non arcu a ante feugiat vestibulum. Suspendisse potenti. Praesent scelerisque. Sed fringilla. Vestibulum ante ipsum primis in faucibus orci luctus et ultrices posuere cubilia Curae; Suspendisse potenti. Vivamus posuere, ante eu tempor dictum, felis nibh facilisis sem, eu auctor metus nulla non lorem. Lorem ipsum dolor sit amet, consectetuer adipiscing elit. Phasellus at purus sed purus cursus iaculis. Nam laoreet dui sed magna. Proin diam augue, semper vitae, varius et, viverra id, felis. Integer porta. Aenean ligula. Vivamus posuere, ante eu tempor dictum, felis nibh facilisis sem, eu auctor metus nulla non lorem. Quisque vehicula porttitor odio. Vivamus posuere, ante eu tempor dictum, felis nibh facilisis sem, eu auctor metus nulla non lorem. Aliquam metus. Nam nisl quam, posuere non, volutpat sed, semper vitae, magna. Aenean luctus vulputate turpis. Etiam fermentum. Curabitur accumsan felis in erat. Nam nisl quam, posuere non, volutpat sed, semper vitae, magna. Vestibulum ante ipsum primis in faucibus orci luctus et ultrices posuere cubilia Curae; Donec gravida, ante vel ornare lacinia, orci enim porta est, eget sollicitudin lectus lectus eget lacus. Vivamus feugiat. Mauris tincidunt aliquam ante. Praesent a eros. Phasellus at purus sed purus cursus iaculis. </flowPara><flowPara
         id="flowPara4668" /></flowRoot>
    <flowRoot
       xml:space="preserve"
       id="flowRoot4752"><flowRegion
         id="flowRegion4730"><text
   xml:space="preserve"
   style="font-size:7.54232px;line-height:1.25;font-family:'Liberation Sans';-inkscape-font-specification:'Liberation Sans';stroke-width:0.486301"
   x="46.390026"
   y="46.032681"
   id="text4728"><tspan
     sodipodi:role="line"
     id="tspan4726"
     x="46.390026"
     y="46.032681"
     style="font-weight:bold;font-size:7.54232px;stroke-width:0.486301">TOOL </tspan></text>
    </flowRegion><flowPara
         id="flowPara4732">Lorem ipsum dolor sit amet, consectetuer adipiscing elit. Praesent a lacus vitae turpis consequat semper. Aliquam vel nibh. Ut venenatis. Etiam cursus purus interdum libero. Nullam libero nunc, tristique eget, laoreet eu, sagittis id, ante. Duis sem velit, ultrices et, fermentum auctor, rhoncus ut, ligula. Integer risus velit, facilisis eget, viverra et, venenatis id, leo. Vivamus quis mi. Pellentesque tempor. Donec tempus quam quis neque. Donec tempus quam quis neque. Quisque malesuada nulla sed pede volutpat pulvinar. Sed dolor. Pellentesque condimentum felis a sem. Nullam libero nunc, tristique eget, laoreet eu, sagittis id, ante. Integer accumsan. Aliquam velit dui, commodo quis, porttitor eget, convallis et, nisi. Integer risus velit, facilisis eget, viverra et, venenatis id, leo. Maecenas viverra. Nunc metus. Integer risus velit, facilisis eget, viverra et, venenatis id, leo. Lorem ipsum dolor sit amet, consectetuer adipiscing elit. Integer porta. </flowPara><flowPara
         id="flowPara4734" /><flowPara
         id="flowPara4736">Aenean scelerisque metus eget sem. Suspendisse potenti. Praesent a lacus vitae turpis consequat semper. Suspendisse potenti. Nulla facilisi. Phasellus auctor enim eget sem. Cras gravida. Praesent aliquet, neque pretium congue mattis, ipsum augue dignissim ante, ac pretium nisl lectus at magna. Nullam venenatis gravida orci. Vestibulum ante ipsum primis in faucibus orci luctus et ultrices posuere cubilia Curae; Vivamus eu orci. Maecenas justo. Praesent scelerisque. Mauris urna sem, suscipit vitae, dignissim id, ultrices sed, nunc. Aenean justo ipsum, luctus ut, volutpat laoreet, vehicula in, libero. Phasellus hendrerit. Aenean ligula. Cras ac enim vel dui vestibulum suscipit. Nam nisl quam, posuere non, volutpat sed, semper vitae, magna. Fusce nonummy commodo dui. Integer accumsan. Nam massa turpis, nonummy et, consectetuer id, placerat ac, ante. In commodo, dolor quis fermentum ullamcorper, urna massa volutpat massa, vitae mattis purus arcu nec nulla. Curabitur risus urna, placerat et, luctus pulvinar, auctor vel, orci. Nam sed nisl nec elit suscipit ullamcorper. Suspendisse potenti. </flowPara><flowPara
         id="flowPara4738" /><flowPara
         id="flowPara4740">Pellentesque condimentum felis a sem. Aenean id purus. Vestibulum ante ipsum primis in faucibus orci luctus et ultrices posuere cubilia Curae; Vivamus eu orci. Aliquam metus. Mauris ac massa vestibulum nisl facilisis viverra. Etiam fermentum. Curabitur lorem risus, sagittis vitae, accumsan a, iaculis id, metus. Fusce venenatis ligula in pede. Nam molestie nisl at metus. Phasellus at purus sed purus cursus iaculis. Cras facilisis felis sit amet lorem. Nulla sed lacus. Integer tempus malesuada pede. Vestibulum viverra varius enim. Suspendisse molestie sem. Maecenas convallis dui. Nulla facilisi. Suspendisse lectus. </flowPara><flowPara
         id="flowPara4742" /><flowPara
         id="flowPara4744">Pellentesque viverra dolor non nunc. Maecenas rhoncus rhoncus ipsum. Pellentesque ac turpis. Aliquam metus. Vivamus posuere, ante eu tempor dictum, felis nibh facilisis sem, eu auctor metus nulla non lorem. Nam rhoncus, lectus vel hendrerit congue, nisl lorem feugiat ante, in fermentum erat nulla tristique arcu. Aliquam vel nibh. Aenean ultrices turpis. Suspendisse potenti. Morbi pulvinar nulla sit amet nisl. Vestibulum ante ipsum primis in faucibus orci luctus et ultrices posuere cubilia Curae; Vivamus eu orci. Etiam fermentum. Nam nisl quam, posuere non, volutpat sed, semper vitae, magna. Aenean scelerisque metus eget sem. Ut eu metus id lectus vestibulum ultrices. </flowPara><flowPara
         id="flowPara4746" /><flowPara
         id="flowPara4748">Morbi turpis arcu, egestas congue, condimentum quis, tristique cursus, leo. Nam laoreet dui sed magna. Proin diam augue, semper vitae, varius et, viverra id, felis. Mauris et pede. Suspendisse molestie sem. Aenean turpis ipsum, rhoncus vitae, posuere vitae, euismod sed, ligula. Fusce nonummy commodo dui. In commodo, dolor quis fermentum ullamcorper, urna massa volutpat massa, vitae mattis purus arcu nec nulla. Quisque malesuada nulla sed pede volutpat pulvinar. Sed fringilla. Cras facilisis felis sit amet lorem. In consectetuer, lorem eu lobortis egestas, velit odio imperdiet eros, sit amet sagittis nunc mi ac neque. Aliquam vel nibh. Nam molestie nisl at metus. Sed a lorem ut est tincidunt consectetuer. Aenean id purus. Suspendisse potenti. Aliquam justo lectus, iaculis a, auctor sed, congue in, nisl. Sed fringilla. In consectetuer, lorem eu lobortis egestas, velit odio imperdiet eros, sit amet sagittis nunc mi ac neque. Quisque aliquam, nulla ac scelerisque convallis, nisi ligula sagittis risus, at nonummy arcu urna pulvinar nibh. Mauris tempus diam. Mauris urna sem, suscipit vitae, dignissim id, ultrices sed, nunc. Quisque facilisis, urna sit amet pulvinar mollis, purus arcu adipiscing velit, non condimentum diam purus eu massa. Aenean justo ipsum, luctus ut, volutpat laoreet, vehicula in, libero. Sed quis elit. Aenean justo ipsum, luctus ut, volutpat laoreet, vehicula in, libero. In hac habitasse platea dictumst. </flowPara><flowPara
         id="flowPara4750" /></flowRoot>
    <text
       xml:space="preserve"
       style="font-size:3.175px;line-height:0;font-family:'Liberation Sans';-inkscape-font-specification:'Liberation Sans';letter-spacing:0px;stroke-width:0.409802"
       x="39.566433"
       y="48.860683"
       id="toolUrl"><tspan
         sodipodi:role="line"
         id="tspan4890"
         x="39.566433"
         y="48.860683"
         style="font-style:normal;font-variant:normal;font-weight:normal;font-stretch:normal;font-size:3.175px;font-family:'Liberation Mono';-inkscape-font-specification:'Liberation Mono';stroke-width:0.409802"
         dy="0 0 0 0 0 0 0 0 2.4831486e-08">https://wiki.protospace.ca/26</tspan></text>
    <text
       xml:space="preserve"
       style="font-size:6.35586px;line-height:1.25;font-family:'Liberation Sans';-inkscape-font-specification:'Liberation Sans';stroke-width:0.409802"
       x="97.843216"
       y="60.924801"
       id="text4898"><tspan
         sodipodi:role="line"
         id="tspan4896"
         x="97.843216"
         y="60.924801"
         style="font-weight:bold;font-size:6.35586px;stroke-width:0.409802" /></text>
    <rect
       style="opacity:1;fill:none;fill-opacity:1;fill-rule:evenodd;stroke:none;stroke-width:0.555615;stroke-miterlimit:4;stroke-dasharray:1.66684, 1.66684;stroke-dashoffset:0;stroke-opacity:1"
       id="rect4906"
       width="60.312154"
       height="33.65745"
       x="32.486176"
       y="11.300441"
       ry="0" />
    <text
       xml:space="preserve"
       style="font-size:6.35px;line-height:1.25;font-family:'Liberation Sans';-inkscape-font-specification:'Liberation Sans';white-space:pre;stroke-width:0.409802;shape-inside:url(#rect4906);"
       x="119.28798"
       y="-5.2471681"
       id="toolName"
       transform="translate(7.5219392,0.56235564)"><tspan
         x="32.486328"
         y="17.020572"><tspan
           style="shape-inside:url(#rect4906)">Power supply, bench </tspan></tspan><tspan
         x="32.486328"
         y="24.958072"><tspan
           style="shape-inside:url(#rect4906)">(GQ Electronics GQ-</tspan></tspan><tspan
         x="32.486328"
         y="32.895572"><tspan
           style="shape-inside:url(#rect4906)">A305D)</tspan></tspan></text>
    <text
       xml:space="preserve"
       style="font-size:5.10065px;line-height:1.25;font-family:'Liberation Sans';-inkscape-font-specification:'Liberation Sans';stroke-width:0.127517"
       x="83.396477"
       y="8.3947868"
       id="toolId"><tspan
         sodipodi:role="line"
         id="tspan1270"
         x="83.396477"
         y="8.3947868"
         style="font-weight:bold;stroke-width:0.127517">26</tspan></text>
    <g
       inkscape:label="QR Code: https://wiki.protospace.ca/26"
       transform="matrix(0.27680227,0,0,0.27680227,0.153038,12.981658)"
       id="toolQr">
      <rect
         x="0"
         y="0"
         width="132"
         height="132"
         style="fill:#ffffff;stroke:none"
         id="rect1312" />
      <g
         style="fill:#000000;stroke:none"
         id="g1316">
        <path
           d="M 115.6,116 H 84.4 C 84.179086,116 84,115.82091 84,115.6 V 112 h 7.6 c 0.220914,0 0.4,-0.17909 0.4,-0.4 v -3.2 c 0,-0.22091 0.179086,-0.4 0.4,-0.4 h 7.2 c 0.220914,0 0.4,-0.17909 0.4,-0.4 v -3.2 c 0,-0.22091 -0.179086,-0.4 -0.4,-0.4 h -3.2 c -0.220914,0 -0.4,-0.17909 -0.4,-0.4 v -3.2 c 0,-0.22091 -0.179086,-0.4 -0.4,-0.4 h -3.2 c -0.220914,0 -0.4,0.17909 -0.4,0.4 v 3.2 c 0,0.22091 -0.179086,0.4 -0.4,0.4 h -7.2 c -0.220914,0 -0.4,0.17909 -0.4,0.4 v 7.6 h -3.6 c -0.220914,0 -0.4,0.17909 -0.4,0.4 v 3.2 c 0,0.22091 -0.179086,0.4 -0.4,0.4 h -3.2 c -0.220914,0 -0.4,-0.17909 -0.4,-0.4 v -3.2 C 76,112.17909 75.820914,112 75.6,112 H 72 v -7.6 c 0,-0.22091 0.179086,-0.4 0.4,-0.4 H 76 v 3.6 c 0,0.22091 0.179086,0.4 0.4,0.4 h 3.2 c 0.220914,0 0.4,-0.17909 0.4,-0.4 v -3.2 C 80,104.17909 79.820914,104 79.6,104 H 76 v -3.6 C 76,100.17909 75.820914,100 75.6,100 H 64 V 96.4 C 64,96.179086 63.820914,96 63.6,96 H 60.4 C 60.179086,96 60,96.179086 60,96.4 v 3.6 h -4 v -8 h 12 v 3.6 c 0,0.220914 0.179086,0.4 0.4,0.4 h 3.2 C 71.820914,96 72,95.820914 72,95.6 V 92 h 3.6 c 0.220914,0 0.4,0.179086 0.4,0.4 v 3.2 c 0,0.220914 0.179086,0.4 0.4,0.4 h 3.2 C 79.820914,96 80,95.820914 80,95.6 V 84.4 C 80,84.179086 79.820914,84 79.6,84 H 64 V 76.4 C 64,76.179086 64.179086,76 64.4,76 h 3.2 c 0.220914,0 0.4,0.179086 0.4,0.4 v 3.2 c 0,0.220914 0.179086,0.4 0.4,0.4 h 3.2 C 71.820914,80 72,79.820914 72,79.6 V 76.4 C 72,76.179086 72.179086,76 72.4,76 h 3.2 C 75.820914,76 76,75.820914 76,75.6 V 72.4 C 76,72.179086 76.179086,72 76.4,72 H 80 v 7.6 c 0,0.220914 0.179086,0.4 0.4,0.4 h 3.2 C 83.820914,80 84,79.820914 84,79.6 V 76.4 C 84,76.179086 84.179086,76 84.4,76 h 3.2 c 0.220914,0 0.4,0.179086 0.4,0.4 v 3.2 c 0,0.220914 0.179086,0.4 0.4,0.4 h 3.2 C 91.820914,80 92,79.820914 92,79.6 V 68.4 C 92,68.179086 91.820914,68 91.6,68 H 84.4 C 84.179086,68 84,68.179086 84,68.4 v 3.2 C 84,71.820914 83.820914,72 83.6,72 H 80 V 68.4 C 80,68.179086 79.820914,68 79.6,68 H 68.4 C 68.179086,68 68,68.179086 68,68.4 v 3.2 C 68,71.820914 67.820914,72 67.6,72 H 60.4 C 60.179086,72 60,71.820914 60,71.6 V 68.4 C 60,68.179086 59.820914,68 59.6,68 H 48.4 C 48.179086,68 48,67.820914 48,67.6 V 64.4 C 48,64.179086 47.820914,64 47.6,64 H 44 V 60.4 C 44,60.179086 43.820914,60 43.6,60 H 40 v -4 h 3.6 C 43.820914,56 44,55.820914 44,55.6 V 52.4 C 44,52.179086 43.820914,52 43.6,52 H 40 V 48.4 C 40,48.179086 40.179086,48 40.4,48 H 51.6 C 51.820914,48 52,47.820914 52,47.6 V 44 h 3.6 C 55.820914,44 56,43.820914 56,43.6 V 40 h 3.6 c 0.220914,0 0.4,0.179086 0.4,0.4 v 3.2 c 0,0.220914 0.179086,0.4 0.4,0.4 h 3.2 C 63.820914,44 64,43.820914 64,43.6 V 36.4 C 64,36.179086 63.820914,36 63.6,36 H 60.4 C 60.179086,36 60,35.820914 60,35.6 V 32 h 8 v 3.6 c 0,0.220914 0.179086,0.4 0.4,0.4 H 72 v 4 H 68.4 C 68.179086,40 68,40.179086 68,40.4 V 48 H 56.4 C 56.179086,48 56,48.179086 56,48.4 V 52 H 48.4 C 48.179086,52 48,52.179086 48,52.4 v 3.2 c 0,0.220914 0.179086,0.4 0.4,0.4 h 3.2 c 0.220914,0 0.4,0.179086 0.4,0.4 v 7.2 c 0,0.220914 0.179086,0.4 0.4,0.4 h 7.2 C 59.820914,64 60,63.820914 60,63.6 V 60 h 3.6 c 0.220914,0 0.4,0.179086 0.4,0.4 v 3.2 c 0,0.220914 0.179086,0.4 0.4,0.4 H 83.6 C 83.820914,64 84,63.820914 84,63.6 V 60.4 C 84,60.179086 84.179086,60 84.4,60 h 7.2 C 91.820914,60 92,59.820914 92,59.6 V 48.4 C 92,48.179086 92.179086,48 92.4,48 h 3.2 c 0.220914,0 0.4,0.179086 0.4,0.4 v 7.2 c 0,0.220914 0.179086,0.4 0.4,0.4 h 7.2 c 0.22091,0 0.4,0.179086 0.4,0.4 v 3.2 c 0,0.220914 -0.17909,0.4 -0.4,0.4 H 96.4 C 96.179086,60 96,60.179086 96,60.4 v 3.2 c 0,0.220914 0.179086,0.4 0.4,0.4 h 3.2 c 0.220914,0 0.4,0.179086 0.4,0.4 V 68 H 96.4 C 96.179086,68 96,68.179086 96,68.4 v 3.2 c 0,0.220914 0.179086,0.4 0.4,0.4 h 3.2 c 0.220914,0 0.4,-0.179086 0.4,-0.4 V 68 h 4 v 7.6 c 0,0.220914 -0.17909,0.4 -0.4,0.4 h -3.2 c -0.22091,0 -0.4,0.179086 -0.4,0.4 v 7.2 c 0,0.220914 0.17909,0.4 0.4,0.4 h 3.6 v 4 h -3.6 c -0.22091,0 -0.4,0.179086 -0.4,0.4 v 3.2 c 0,0.220914 0.17909,0.4 0.4,0.4 h 3.6 v 4 h -3.6 c -0.22091,0 -0.4,0.179086 -0.4,0.4 v 3.2 c 0,0.220914 0.17909,0.4 0.4,0.4 h 3.2 c 0.22091,0 0.4,-0.179086 0.4,-0.4 V 96 h 3.6 c 0.22091,0 0.4,-0.179086 0.4,-0.4 V 92.4 C 108,92.179086 107.82091,92 107.6,92 H 104 v -4 h 11.6 c 0.22091,0 0.4,0.179086 0.4,0.4 v 7.2 c 0,0.220914 -0.17909,0.4 -0.4,0.4 h -3.2 c -0.22091,0 -0.4,0.179086 -0.4,0.4 v 3.2 c 0,0.220914 0.17909,0.4 0.4,0.4 h 3.2 c 0.22091,0 0.4,0.17909 0.4,0.4 v 15.2 c 0,0.22091 -0.17909,0.4 -0.4,0.4 z m -44,0 H 56.4 c -0.220914,0 -0.4,-0.17909 -0.4,-0.4 v -3.2 c 0,-0.22091 0.179086,-0.4 0.4,-0.4 h 3.2 c 0.220914,0 0.4,-0.17909 0.4,-0.4 v -3.2 c 0,-0.22091 0.179086,-0.4 0.4,-0.4 H 64 v 3.6 c 0,0.22091 0.179086,0.4 0.4,0.4 H 72 v 3.6 c 0,0.22091 -0.179086,0.4 -0.4,0.4 z m -20,0 H 48.4 C 48.179086,116 48,115.82091 48,115.6 V 96.4 C 48,96.179086 48.179086,96 48.4,96 h 3.2 c 0.220914,0 0.4,0.179086 0.4,0.4 v 3.2 c 0,0.220914 0.179086,0.4 0.4,0.4 H 56 v 3.6 c 0,0.22091 -0.179086,0.4 -0.4,0.4 h -3.2 c -0.220914,0 -0.4,0.17909 -0.4,0.4 v 11.2 c 0,0.22091 -0.179086,0.4 -0.4,0.4 z m -8,0 H 16.4 C 16.179086,116 16,115.82091 16,115.6 V 88.4 C 16,88.179086 16.179086,88 16.4,88 h 27.2 c 0.220914,0 0.4,0.179086 0.4,0.4 v 27.2 c 0,0.22091 -0.179086,0.4 -0.4,0.4 z m 68.4,-4.4 v -7.2 c 0,-0.22091 -0.17909,-0.4 -0.4,-0.4 h -3.2 c -0.22091,0 -0.4,0.17909 -0.4,0.4 v 3.2 c 0,0.22091 -0.17909,0.4 -0.4,0.4 h -3.2 c -0.22091,0 -0.4,0.17909 -0.4,0.4 v 3.2 c 0,0.22091 0.17909,0.4 0.4,0.4 h 7.2 c 0.22091,0 0.4,-0.17909 0.4,-0.4 z m -72,0 V 92.4 C 40,92.179086 39.820914,92 39.6,92 H 20.4 C 20.179086,92 20,92.179086 20,92.4 v 19.2 c 0,0.22091 0.179086,0.4 0.4,0.4 h 19.2 c 0.220914,0 0.4,-0.17909 0.4,-0.4 z M 67.6,108 H 64 v -4 h 3.6 c 0.220914,0 0.4,0.17909 0.4,0.4 v 3.2 c 0,0.22091 -0.179086,0.4 -0.4,0.4 z m -32,0 H 24.4 C 24.179086,108 24,107.82091 24,107.6 V 96.4 C 24,96.179086 24.179086,96 24.4,96 h 11.2 c 0.220914,0 0.4,0.179086 0.4,0.4 v 11.2 c 0,0.22091 -0.179086,0.4 -0.4,0.4 z m 28,-4 H 60.4 C 60.179086,104 60,103.82091 60,103.6 V 100 h 4 v 4 z M 96,95.6 V 84.4 C 96,84.179086 95.820914,84 95.6,84 H 84.4 C 84.179086,84 84,84.179086 84,84.4 v 11.2 c 0,0.220914 0.179086,0.4 0.4,0.4 H 95.6 C 95.820914,96 96,95.820914 96,95.6 Z M 91.6,92 H 88.4 C 88.179086,92 88,91.820914 88,91.6 V 88.4 C 88,88.179086 88.179086,88 88.4,88 h 3.2 c 0.220914,0 0.4,0.179086 0.4,0.4 v 3.2 c 0,0.220914 -0.179086,0.4 -0.4,0.4 z m -20,0 H 68 V 88.4 C 68,88.179086 68.179086,88 68.4,88 h 3.2 c 0.220914,0 0.4,0.179086 0.4,0.4 V 92 Z m -16,0 H 48.4 C 48.179086,92 48,91.820914 48,91.6 V 84 h 7.6 C 55.820914,84 56,83.820914 56,83.6 V 76.4 C 56,76.179086 56.179086,76 56.4,76 h 3.2 c 0.220914,0 0.4,0.179086 0.4,0.4 v 7.2 c 0,0.220914 0.179086,0.4 0.4,0.4 H 64 v 3.6 C 64,87.820914 63.820914,88 63.6,88 H 56.4 C 56.179086,88 56,88.179086 56,88.4 V 92 Z m 52,-8 H 104 v -3.6 c 0,-0.220914 0.17909,-0.4 0.4,-0.4 h 3.2 c 0.22091,0 0.4,0.179086 0.4,0.4 v 3.2 c 0,0.220914 -0.17909,0.4 -0.4,0.4 z m -60,0 H 40.4 C 40.179086,84 40,83.820914 40,83.6 V 80 h 3.6 C 43.820914,80 44,79.820914 44,79.6 V 76 h 4 v 8 z m -12,0 H 28.4 C 28.179086,84 28,83.820914 28,83.6 V 72 h 4 v 7.6 c 0,0.220914 0.179086,0.4 0.4,0.4 H 36 v 3.6 c 0,0.220914 -0.179086,0.4 -0.4,0.4 z m -16,0 H 16.4 C 16.179086,84 16,83.820914 16,83.6 V 68.4 C 16,68.179086 16.179086,68 16.4,68 h 3.2 c 0.220914,0 0.4,0.179086 0.4,0.4 v 15.2 c 0,0.220914 -0.179086,0.4 -0.4,0.4 z m 96,-4 h -3.2 c -0.22091,0 -0.4,-0.179086 -0.4,-0.4 v -3.2 c 0,-0.220914 -0.17909,-0.4 -0.4,-0.4 h -3.2 C 108.17909,76 108,75.820914 108,75.6 V 68.4 C 108,68.179086 107.82091,68 107.6,68 H 104 v -3.6 c 0,-0.220914 0.17909,-0.4 0.4,-0.4 h 7.2 c 0.22091,0 0.4,-0.179086 0.4,-0.4 v -3.2 c 0,-0.220914 -0.17909,-0.4 -0.4,-0.4 h -3.2 C 108.17909,60 108,59.820914 108,59.6 V 48.4 c 0,-0.220914 0.17909,-0.4 0.4,-0.4 h 3.2 c 0.22091,0 0.4,0.179086 0.4,0.4 v 7.2 c 0,0.220914 0.17909,0.4 0.4,0.4 h 3.2 c 0.22091,0 0.4,0.179086 0.4,0.4 v 11.2 c 0,0.220914 -0.17909,0.4 -0.4,0.4 h -3.2 c -0.22091,0 -0.4,0.179086 -0.4,0.4 v 3.2 c 0,0.220914 0.17909,0.4 0.4,0.4 h 3.2 c 0.22091,0 0.4,0.179086 0.4,0.4 v 7.2 c 0,0.220914 -0.17909,0.4 -0.4,0.4 z m -76,0 H 36 v -8 h 7.6 c 0.220914,0 0.4,0.179086 0.4,0.4 V 76 H 40.4 C 40.179086,76 40,76.179086 40,76.4 V 80 Z m 12,-4 H 48 V 72.4 C 48,72.179086 48.179086,72 48.4,72 h 3.2 c 0.220914,0 0.4,0.179086 0.4,0.4 v 3.2 c 0,0.220914 -0.179086,0.4 -0.4,0.4 z m -16,-4 H 32 V 68.4 C 32,68.179086 31.820914,68 31.6,68 H 28.4 C 28.179086,68 28,68.179086 28,68.4 V 72 H 24.4 C 24.179086,72 24,71.820914 24,71.6 V 52.4 C 24,52.179086 23.820914,52 23.6,52 H 20.4 C 20.179086,52 20,52.179086 20,52.4 v 3.2 C 20,55.820914 19.820914,56 19.6,56 H 16.4 C 16.179086,56 16,55.820914 16,55.6 V 48.4 C 16,48.179086 16.179086,48 16.4,48 h 19.2 c 0.220914,0 0.4,0.179086 0.4,0.4 v 3.2 c 0,0.220914 0.179086,0.4 0.4,0.4 H 40 v 4 H 36.4 C 36.179086,56 36,56.179086 36,56.4 V 60 H 28.4 C 28.179086,60 28,60.179086 28,60.4 v 3.2 c 0,0.220914 0.179086,0.4 0.4,0.4 H 36 v 8 z m 8,-4 H 40.4 C 40.179086,68 40,67.820914 40,67.6 V 64 h 4 v 3.6 c 0,0.220914 -0.179086,0.4 -0.4,0.4 z m -4,-4 H 36 v -4 h 4 v 4 z m 40,-4 H 76.4 C 76.179086,60 76,59.820914 76,59.6 V 56 h 4 v 3.6 c 0,0.220914 -0.179086,0.4 -0.4,0.4 z m -20,0 H 56.4 C 56.179086,60 56,59.820914 56,59.6 V 52 h 12 v 3.6 C 68,55.820914 67.820914,56 67.6,56 H 60.4 C 60.179086,56 60,56.179086 60,56.4 V 60 Z m 24,-4 H 80 V 52.4 C 80,52.179086 80.179086,52 80.4,52 H 84 v 3.6 c 0,0.220914 -0.179086,0.4 -0.4,0.4 z m -8,0 H 72.4 C 72.179086,56 72,55.820914 72,55.6 V 52.4 C 72,52.179086 71.820914,52 71.6,52 H 68 v -4 h 3.6 C 71.820914,48 72,47.820914 72,47.6 V 40 h 4 V 56 Z M 32,55.6 V 52.4 C 32,52.179086 31.820914,52 31.6,52 H 28.4 C 28.179086,52 28,52.179086 28,52.4 v 3.2 c 0,0.220914 0.179086,0.4 0.4,0.4 h 3.2 C 31.820914,56 32,55.820914 32,55.6 Z M 103.6,52 h -3.2 c -0.22091,0 -0.4,-0.179086 -0.4,-0.4 v -3.2 c 0,-0.220914 0.17909,-0.4 0.4,-0.4 h 3.2 c 0.22091,0 0.4,0.179086 0.4,0.4 v 3.2 c 0,0.220914 -0.17909,0.4 -0.4,0.4 z m -16,0 H 84 v -4 h 3.6 c 0.220914,0 0.4,0.179086 0.4,0.4 v 3.2 c 0,0.220914 -0.179086,0.4 -0.4,0.4 z m -4,-4 H 80.4 C 80.179086,48 80,47.820914 80,47.6 V 40.4 C 80,40.179086 79.820914,40 79.6,40 H 76 v -4 h 3.6 C 79.820914,36 80,35.820914 80,35.6 V 32.4 C 80,32.179086 79.820914,32 79.6,32 H 76.4 C 76.179086,32 76,32.179086 76,32.4 V 36 H 72 V 32.4 C 72,32.179086 71.820914,32 71.6,32 H 68 V 28.4 C 68,28.179086 68.179086,28 68.4,28 h 3.2 C 71.820914,28 72,27.820914 72,27.6 V 24.4 C 72,24.179086 71.820914,24 71.6,24 H 64 V 16.4 C 64,16.179086 64.179086,16 64.4,16 h 7.2 c 0.220914,0 0.4,0.179086 0.4,0.4 v 3.2 c 0,0.220914 0.179086,0.4 0.4,0.4 H 80 v 3.6 c 0,0.220914 0.179086,0.4 0.4,0.4 h 3.2 c 0.220914,0 0.4,0.179086 0.4,0.4 V 48 Z m 32,-4 H 88.4 C 88.179086,44 88,43.820914 88,43.6 V 16.4 C 88,16.179086 88.179086,16 88.4,16 h 27.2 c 0.22091,0 0.4,0.179086 0.4,0.4 v 27.2 c 0,0.220914 -0.17909,0.4 -0.4,0.4 z m -64,0 H 48.4 C 48.179086,44 48,43.820914 48,43.6 V 36.4 C 48,36.179086 48.179086,36 48.4,36 h 3.2 C 51.820914,36 52,35.820914 52,35.6 V 32.4 C 52,32.179086 51.820914,32 51.6,32 H 48.4 C 48.179086,32 48,31.820914 48,31.6 V 28.4 C 48,28.179086 48.179086,28 48.4,28 H 60 v 4 H 56.4 C 56.179086,32 56,32.179086 56,32.4 V 40 H 52.4 C 52.179086,40 52,40.179086 52,40.4 V 44 Z m -8,0 H 16.4 C 16.179086,44 16,43.820914 16,43.6 V 16.4 C 16,16.179086 16.179086,16 16.4,16 h 27.2 c 0.220914,0 0.4,0.179086 0.4,0.4 V 43.6 C 44,43.820914 43.820914,44 43.6,44 Z M 112,39.6 V 20.4 C 112,20.179086 111.82091,20 111.6,20 H 92.4 C 92.179086,20 92,20.179086 92,20.4 v 19.2 c 0,0.220914 0.179086,0.4 0.4,0.4 h 19.2 c 0.22091,0 0.4,-0.179086 0.4,-0.4 z m -72,0 V 20.4 C 40,20.179086 39.820914,20 39.6,20 H 20.4 C 20.179086,20 20,20.179086 20,20.4 v 19.2 c 0,0.220914 0.179086,0.4 0.4,0.4 H 39.6 C 39.820914,40 40,39.820914 40,39.6 Z M 107.6,36 H 96.4 C 96.179086,36 96,35.820914 96,35.6 V 24.4 C 96,24.179086 96.179086,24 96.4,24 h 11.2 c 0.22091,0 0.4,0.179086 0.4,0.4 v 11.2 c 0,0.220914 -0.17909,0.4 -0.4,0.4 z m -72,0 H 24.4 C 24.179086,36 24,35.820914 24,35.6 V 24.4 C 24,24.179086 24.179086,24 24.4,24 h 11.2 c 0.220914,0 0.4,0.179086 0.4,0.4 v 11.2 c 0,0.220914 -0.179086,0.4 -0.4,0.4 z m 28,-8 H 60 v -4 h 4 v 3.6 c 0,0.220914 -0.179086,0.4 -0.4,0.4 z m -4,-4 H 56.4 C 56.179086,24 56,23.820914 56,23.6 V 20.4 C 56,20.179086 56.179086,20 56.4,20 h 3.2 c 0.220914,0 0.4,0.179086 0.4,0.4 V 24 Z m -8,0 H 48.4 C 48.179086,24 48,23.820914 48,23.6 V 20.4 C 48,20.179086 48.179086,20 48.4,20 h 3.2 c 0.220914,0 0.4,0.179086 0.4,0.4 v 3.2 c 0,0.220914 -0.179086,0.4 -0.4,0.4 z m 32,-4 H 80 V 16.4 C 80,16.179086 80.179086,16 80.4,16 h 3.2 c 0.220914,0 0.4,0.179086 0.4,0.4 v 3.2 c 0,0.220914 -0.179086,0.4 -0.4,0.4 z"
           id="path1314" />
      </g>
    </g>
  </g>
</svg>
